<svg width="15" height="15" viewBox="0 0 15 15" xmlns="http://www.w3.org/2000/svg">
  <path d="M12.75 12.75H10.5V8.775c0-.6-.525-1.125-1.125-1.125S8.25 8.175 8.25 8.775v3.975H6V6h2.25v.9c.375-.6 1.2-1.05 1.875-1.05 1.425 0 2.625 1.2 2.625 2.625v4.275zM3.375 4.725c-.75 0-1.35-.6-1.35-1.35 0-.75.6-1.35 1.35-1.35.75 0 1.35.6 1.35 1.35 0 .75-.6 1.35-1.35 1.35zM2.25 12.75H4.5V6H2.25v6.75zM13.5 0h-12C.675 0 0 .675 0 1.5v12c0 .825.675 1.5 1.5 1.5h12c.825 0 1.5-.675 1.5-1.5v-12c0-.825-.675-1.5-1.5-1.5z" fill="#FFF" fill-rule="evenodd"/>
</svg>
