<svg width="19" height="12" viewBox="0 0 19 12" xmlns="http://www.w3.org/2000/svg">
  <path d="M9.5 0c5.165 0 9.21 5.404 9.38 5.634a.616.616 0 010 .732C18.71 6.596 14.664 12 9.5 12 4.335 12 .29 6.596.12 6.366a.617.617 0 010-.732C.29 5.404 4.336 0 9.5 0zm0 1.241C5.687 1.241 2.398 4.826 1.424 6 2.4 7.172 5.695 10.759 9.5 10.759c3.813 0 7.101-3.585 8.076-4.759C16.6 4.827 13.305 1.241 9.5 1.241zm0 1.359c1.93 0 3.5 1.57 3.5 3.5s-1.57 3.5-3.5 3.5S6 8.03 6 6.1s1.57-3.5 3.5-3.5zm0 1.167A2.336 2.336 0 007.167 6.1 2.336 2.336 0 009.5 8.433 2.336 2.336 0 0011.833 6.1 2.336 2.336 0 009.5 3.767z" fill="#FFF" fill-rule="nonzero"/>
</svg>
