<svg version="1.1" id="Layer_1" xmlns="http://www.w3.org/2000/svg" x="0" y="0" viewBox="0 0 281 23" xml:space="preserve">
  <style>
    .st0{fill:#8f2a2b}
  </style>
  <path class="st0" d="M14.5.4c-.8 0-1.4.4-1.9 1.2L.1 22.1l-.1.2h4.6L14.4 6l4.7 7.7h-6.6l-1.9 3.2H21l3.2 5.3v.1H29L16.4 1.7C15.9.8 15.3.4 14.5.4zM53 16L37.8 1.2c-.6-.6-1.1-.8-1.7-.8-1.3 0-2 .9-2 2.3v19.5h3.8V6.7L53 21.6c.6.6 1.2.8 1.8.8 1.2 0 2-.9 2-2.3V.4H53V16zM76.6.4c-.8 0-1.4.4-1.9 1.2L62.2 22.1l-.1.2h4.6L76.5 6l4.7 7.7h-6.6l-1.9 3.2h10.4l3.2 5.3v.1h4.8L78.5 1.7C78 .8 77.4.4 76.6.4zM101.3.8V.7h-4v21.6H116v-3.9h-14.7zM128.2 10.5L119.8.7h-5.4l11.7 13.4v8.2h4v-8.2L141.8.7h-5.2zM154.6 4.7h11.9v-4h-11.9C148.3.7 144 5 144 11.3c0 3.2 1.2 6.1 3.3 8.1 1.9 1.9 4.6 2.9 7.4 2.9h13.2V9.6H154V13h9.8v5.3h-9.2c-1.8 0-3.4-.6-4.6-1.8-1.3-1.3-2-3.1-2-5.1-.1-3.9 2.7-6.7 6.6-6.7zM175.7 22.2v.1h19.6v-3.9h-15.6l-.1-13.7h15.7l-.1-4h-19.6z"/>
  <path class="st0" d="M182.2 13h12.3V9.7h-12.3zM221.8 16.1L206.7 1.3c-.6-.6-1.1-.8-1.7-.8-1.3 0-2 .9-2 2.3v19.5h3.8V6.8l15.1 14.9c.6.6 1.2.8 1.8.8 1.2 0 2-.9 2-2.3V.5h-3.8l-.1 15.6zM231.3 11.3c0 3.2 1.2 6.1 3.3 8.1 1.9 1.9 4.6 2.9 7.4 2.9h11.9v-4H242c-1.8 0-3.4-.6-4.6-1.8-1.3-1.3-2-3.1-2-5.1 0-4 2.8-6.8 6.6-6.8h11.9v-4H242c-6.3.1-10.7 4.5-10.7 10.7zM261.3.7v21.6H281v-3.9h-15.7V4.7h15.6v-4z"/>
  <path class="st0" d="M267.9 13h12.2V9.7h-12.2z"/>
</svg>
