<svg version="1.1" id="Layer_1" xmlns="http://www.w3.org/2000/svg" x="0" y="0" viewBox="0 0 267 23" width="267" height="23" xml:space="preserve">
  <style>
    .st0{fill:#fff}
  </style>
  <path class="st0" d="M13.8 1c-.8 0-1.3.4-1.8 1.2L.1 21.6l-.1.2h4.4l9.3-15.5 4.4 7.3h-6.2l-1.9 3h9.9l3.1 5.1v.1h4.6l-12-19.6c-.5-.9-1.1-1.2-1.8-1.2zm36.6 14.8L35.9 1.7c-.5-.5-1-.8-1.6-.8-1.2 0-1.9.8-1.9 2.2v18.6H36V7l14.4 14.2c.5.5 1.1.8 1.7.8 1.1 0 1.9-.9 1.9-2.2V1.1h-3.6v14.7zM72.8 1c-.8 0-1.3.4-1.8 1.2L59.1 21.6l-.1.2h4.4l9.3-15.5 4.4 7.3h-6.2l-1.8 3.1H79l3.1 5.1v.1h4.6l-12-19.6c-.6-1-1.2-1.3-1.9-1.3zm23.5.4v-.2h-3.9l.1 20.5v.1h17.7V18H96.3zm25.5 9.2l-8-9.4h-5.1L119.8 14v7.8h3.8V14l11.1-12.7h-4.9zM146.9 5h11.3V1.2h-11.3c-6 0-10.1 4.1-10.1 10 0 3 1.1 5.8 3.1 7.7 1.8 1.8 4.3 2.8 7 2.8h12.6v-12h-13.2v3.2h9.3V18h-8.7c-1.7 0-3.2-.6-4.4-1.7-1.2-1.2-1.9-2.9-1.9-4.8-.1-3.8 2.6-6.5 6.3-6.5zm20 16.7v.1h18.7V18h-14.9V5h14.8V1.3h-18.6z"/>
  <path class="st0" d="M173.1 13h11.7V9.8h-11.7zm37.7 2.8l-14.4-14c-.5-.5-1-.8-1.6-.8-1.2 0-1.9.8-1.9 2.2v18.6h3.6V7.1l14.4 14.2c.5.5 1.1.8 1.7.8 1.1 0 1.9-.9 1.9-2.2V1.2h-3.6l-.1 14.6zm9-4.5c0 3 1.1 5.8 3.1 7.7 1.8 1.8 4.3 2.8 7 2.8h11.3V18h-11.3c-1.7 0-3.2-.6-4.4-1.7-1.2-1.2-1.9-2.9-1.9-4.8 0-3.8 2.6-6.5 6.3-6.5h11.3V1.2h-11.3c-6 .1-10.1 4.2-10.1 10.1zm28.5-10v20.5H267v-3.7l-14.9-.1V5h14.8V1.3z"/>
  <path class="st0" d="M254.5 13h11.7V9.8h-11.7z"/>
</svg>
