<?xml version="1.0" standalone="no"?>
<!DOCTYPE svg PUBLIC "-//W3C//DTD SVG 20010904//EN"
 "http://www.w3.org/TR/2001/REC-SVG-20010904/DTD/svg10.dtd">
<svg version="1.0" xmlns="http://www.w3.org/2000/svg"
 width="1000.000000pt" height="1000.000000pt" viewBox="0 0 1000.000000 1000.000000"
 preserveAspectRatio="xMidYMid meet">
<metadata>
Created by potrace 1.11, written by Peter Selinger 2001-2013
</metadata>
<g transform="translate(0.000000,1000.000000) scale(0.100000,-0.100000)"
fill="#000000" stroke="none">
<path d="M4977 8414 c-1 -1 -31 -4 -67 -7 -36 -4 -83 -11 -105 -18 -121 -34
-271 -149 -360 -274 -23 -33 -113 -177 -200 -320 -86 -143 -168 -277 -181
-298 -14 -21 -33 -52 -43 -70 -25 -43 -408 -673 -436 -717 -13 -19 -114 -186
-225 -370 -111 -184 -219 -362 -240 -395 -42 -67 -383 -628 -416 -684 -12 -20
-65 -108 -119 -196 -54 -88 -132 -216 -174 -285 -83 -138 -229 -378 -346 -570
-42 -69 -80 -132 -86 -140 -20 -32 -332 -547 -349 -576 -10 -17 -48 -80 -85
-140 -38 -60 -76 -122 -85 -139 -10 -16 -156 -257 -325 -535 -169 -278 -316
-518 -325 -535 -10 -16 -57 -93 -104 -170 -47 -77 -95 -156 -106 -175 -11 -19
-26 -44 -33 -54 -71 -112 -86 -141 -72 -146 11 -4 1360 -5 1412 -1 8 1 262
413 430 699 10 17 41 68 68 114 28 46 52 88 54 93 2 6 18 33 36 60 33 52 166
272 175 290 3 5 241 404 530 885 288 481 530 884 536 895 6 11 194 326 418
700 224 374 494 825 599 1002 106 177 195 322 199 323 5 0 305 -485 386 -625
9 -16 20 -31 25 -33 4 -2 7 -8 7 -13 0 -7 165 -282 239 -399 9 -14 21 -34 27
-45 6 -11 67 -112 136 -225 69 -113 209 -344 312 -515 104 -170 197 -322 207
-337 10 -15 19 -30 19 -32 0 -3 15 -29 34 -58 18 -29 38 -62 44 -73 10 -20 8
-20 -1006 -20 l-1017 0 -86 -145 c-47 -80 -130 -219 -183 -310 -53 -91 -101
-172 -106 -180 -59 -98 -170 -286 -192 -327 l-28 -51 742 0 c409 -1 1139 -1
1623 -1 l881 -1 109 -182 c61 -99 131 -215 157 -257 26 -42 53 -87 61 -101 14
-25 235 -390 443 -730 62 -102 129 -212 149 -245 41 -69 52 -88 80 -130 l20
-31 748 1 c411 0 747 1 747 3 0 2 -16 28 -35 58 -19 30 -35 57 -35 61 0 3 -11
21 -25 39 -14 18 -25 35 -25 39 0 3 -9 18 -19 33 -10 15 -88 140 -172 277
-166 271 -262 428 -403 658 -50 81 -95 155 -101 165 -18 32 -377 616 -410 667
-18 28 -40 64 -49 80 -9 17 -29 50 -45 75 -35 56 -296 480 -405 658 -44 73
-100 163 -123 200 -23 37 -48 78 -56 92 -7 14 -92 151 -187 305 -184 298 -264
429 -292 476 -10 16 -53 86 -96 156 -44 71 -227 369 -407 663 -181 294 -382
623 -448 730 -66 107 -179 292 -252 410 -73 118 -150 243 -171 278 -21 34 -43
70 -49 80 -5 10 -53 87 -105 172 -149 243 -294 375 -460 420 -39 11 -177 29
-183 24z"/>
</g>
</svg>
